<?xml version="1.0" encoding="utf-8"?>
<!-- Generator: Adobe Illustrator 22.0.1, SVG Export Plug-In . SVG Version: 6.00 Build 0)  -->
<svg version="1.1" xmlns="http://www.w3.org/2000/svg" xmlns:xlink="http://www.w3.org/1999/xlink" x="0px" y="0px"
	 viewBox="0 0 1000 1000" style="enable-background:new 0 0 1000 1000;" xml:space="preserve">
<style type="text/css">
	.st0{fill-rule:evenodd;clip-rule:evenodd;fill:#ED1C24;}
	.st1{fill-rule:evenodd;clip-rule:evenodd;fill:none;stroke:#ED1C24;stroke-width:17;stroke-miterlimit:10;}
</style>
<g id="Layer_1">
	<path class="st0" d="M671,283.6c-68.4-113.8-355.3-157.7-512.9,0C24.9,417,20.1,658.2,158.1,796.6c150.8,151.2,420.5,127.7,512.9,0
		c48.2-66.6,67-187.7,0-256.5c-68.7-70.6-208.4-66.4-256.5,0c-27.7,38.2-29.6,103.4,0,128.2c39.1,32.8,115.4-19.5,128.2,0
		c13.5,20.5-47.3,115.1-128.2,128.2c-107,17.4-257-106-256.5-256.5c0.5-148.1,146.6-257.9,256.5-256.5
		c128.7,1.7,210.1,156.2,256.5,128.2C697.5,395.8,698.1,328.8,671,283.6z"/>
	<path class="st1" d="M755.6,284.5c5.1,13.2,24,67.3,0,128.2c-18,45.7-50.5,70.8-64.1,80.1"/>
	<path class="st1" d="M846.3,284.5c7.4,19.3,35.1,98.4,0,187.4c-26.3,66.8-73.8,103.5-93.7,117.1"/>
	<path class="st1" d="M940.8,277.4c9,19.9,48.1,112.8,9.4,220.7c-31.6,88.3-96.6,134-118.4,148"/>
</g>
<g id="Layer_2">
</g>
</svg>
